<svg width="61" height="60" viewBox="0 0 61 60" fill="none" xmlns="http://www.w3.org/2000/svg"><path fill="#68B738" d="M.5 0h60v60H.5z"/><path d="M23.5 15c-1 0-1 1.6 0 1.6h6.7v1.6c-6.8.4-12.2 6.2-12.2 13.3 0 4 1.7 7.6 4.5 10 .5.5.5 1.2.1 1.7l-1.5 1.5c-.8.7.3 1.8 1 1l2-2c.4-.3.9-.4 1.3-.2a12.7 12.7 0 0 0 11 0c.5-.2 1 0 1.4.3l2 2c.6.6 1.6-.4 1-1l-1.5-1.5c-.4-.5-.4-1.2.1-1.7A13.5 13.5 0 0 0 44 31.5c0-7.1-5.4-12.9-12.2-13.3v-1.6h6.6c1 0 1-1.6 0-1.6H23.5Zm-4 16.5c0-6.6 5.1-11.8 11.5-11.8s11.6 5.2 11.6 11.8c0 6.5-5.2 11.8-11.6 11.8-6.4 0-11.6-5.3-11.6-11.8Zm10.7-8.1c0-1.1 1.7-1.1 1.7 0V32a.8.8 0 0 1-.9.9.8.8 0 0 1-.8-.8v-8.7Zm-5 2.6a1.2 1.2 0 0 0 1.2-1.2 1.1 1.1 0 0 0-1.2-1.1 1.2 1.2 0 0 0-1 1.1 1.1 1.1 0 0 0 1 1.2Zm11.6 0a1.2 1.2 0 0 0 1.1-1.2 1.1 1.1 0 0 0-1.1-1.1 1.2 1.2 0 0 0-1 1.1 1.1 1.1 0 0 0 1 1.2ZM26.4 38.6c0 1.5-2.3 1.5-2.3 0s2.3-1.5 2.3 0ZM31 42a1.2 1.2 0 0 0 1.2-.7 1.1 1.1 0 0 0-.7-1.5 1.2 1.2 0 0 0-1.2.3 1.1 1.1 0 0 0 .7 2Zm-8-10.4a1.1 1.1 0 0 1-.8 1.2 1.2 1.2 0 0 1-1.5-.7A1.1 1.1 0 0 1 21 31a1.2 1.2 0 0 1 2 .7Zm17.2 1.2a1.2 1.2 0 0 0 1.2-.7 1.1 1.1 0 0 0-.7-1.5 1.2 1.2 0 0 0-1.2.3 1.1 1.1 0 0 0 .7 1.9ZM38 38.6c0 1.5-2.3 1.5-2.3 0s2.3-1.5 2.3 0Z" fill="#fff"/></svg>