<svg width="61" height="60" viewBox="0 0 61 60" fill="none" xmlns="http://www.w3.org/2000/svg"><path fill="#68B738" d="M.5 0h60v60H.5z"/><path d="M28.9 16c-1.7 0-3 1.4-3 3 0 1.8 1.3 3.2 3 3.2 1.6 0 2.9-1.4 2.9-3.1 0-1.7-1.3-3.1-3-3.1Zm0 1.2c1 0 1.7.8 1.7 1.9 0 1-.8 1.9-1.7 1.9-1 0-1.7-.9-1.7-2 0-1 .7-1.8 1.7-1.8ZM18 40.7c0 1.2.4 2.2 1.4 3 1 .9 2.1.8 2.1.8h19c.8 0 1.9-.4 2.7-1.4.8-1 .8-2.4.8-2.4V23.5c0-.4-.1-.6-.8-.6-.6 0-.6.3-.6.6v17.2c0 .3-.1 1-.8 1.7-.7.6-1.4.6-1.4.6h-19c-.4-.1-1-.3-1.5-1s-.4-1.6-.4-1.6V23.2c0-.5-.3-.7-.8-.7-.4 0-.7.2-.7.6v17.6Zm16.3-16.3c-1 .3-2.2.4-4.2 2.4a5.8 5.8 0 0 1-8.7-.1c-.3-.4-.9-.1-1 .1-.2.2-.2.7 0 1a7 7 0 0 0 4.8 2.3c2.2.2 4.4-.8 5.9-2.3 1.4-1.4 2.1-1.7 3.2-1.9 2.7-.4 4.2.6 5.1 1.3 1 1 1.3.8 1.5.4.6-.7-.2-1.2-1-1.9a7.2 7.2 0 0 0-5.6-1.2Zm-9 7.2c-1.2 0-2.1 1-2.1 2.3 0 1.2.9 2.2 2 2.2 1.2 0 2.1-1 2.1-2.2 0-1.3-.9-2.3-2-2.3Zm11.7.8c-1.5 0-2.8 1.3-2.8 3 0 1.6 1.3 3 2.8 3 1.6 0 2.8-1.4 2.8-3 0-1.7-1.2-3-2.8-3Zm0 1.4c.8 0 1.5.7 1.5 1.6 0 .8-.7 1.5-1.5 1.5s-1.4-.7-1.4-1.5c0-.9.6-1.6 1.4-1.6Z" fill="#fff"/></svg>