<svg width="112" height="15" viewBox="0 0 112 15" fill="none" xmlns="http://www.w3.org/2000/svg"><path d="M9.8.5V12H8.2V6.8H2V12H.5V.5H2v5.1h6.2v-5h1.6Zm10.6 1.3h-3.7V12h-1.5V1.8h-3.7V.5h9v1.3ZM34.1.5V12h-1.4V3.6a8.6 8.6 0 0 1 0-.8L28.8 10c-.1.2-.3.4-.6.4H28c-.2 0-.4-.2-.5-.4l-4-7.2V12h-1.4V.5h1.5l.2.3 4 7a7 7 0 0 1 .3.9 10 10 0 0 1 .4-.9l3.9-7 .2-.2H34Zm9.4 10.2V12H37V.5h1.5v10.2h5Zm10.9-3-1.8-4.6a9.5 9.5 0 0 1-.4-1L52 3l-1.8 4.6h4.3Zm3.2 4.3h-1.2l-.3-.1-.2-.3-1-2.7h-5.2l-1.1 2.7-.2.3-.3.1h-1.2L51.5.5H53L57.6 12Zm6.6-6.7-.1.2h-.5a3.7 3.7 0 0 0-.8-.5l-.8-.1c-.4 0-.7 0-1 .2a2 2 0 0 0-.8.6l-.5 1a5 5 0 0 0-.1 1.2l.1 1.4.5 1 .7.5 1 .2.9-.1.5-.3c.2 0 .3-.2.4-.3h.6l.4.6-.6.5a3.8 3.8 0 0 1-1.6.6l-.8.1c-.5 0-1 0-1.4-.3-.5-.2-.8-.4-1.2-.8-.3-.3-.5-.8-.7-1.3-.2-.5-.3-1-.3-1.8 0-.6 0-1.1.3-1.6.1-.5.4-1 .7-1.3.3-.4.7-.7 1.2-1a4 4 0 0 1 1.6-.2c.6 0 1 0 1.5.2s.8.5 1.2.8l-.4.5Zm6.4 3-1.7.2c-.4 0-.8.2-1.1.3l-.6.5a1 1 0 0 0-.2.6v.6l.4.3.4.3H69l.6-.3c.2 0 .3-.2.5-.3l.5-.5V8.4ZM66 5l1.4-1 1.8-.2c.4 0 .8 0 1.2.2a2.5 2.5 0 0 1 1.4 1.6l.2 1.2V12h-1l-.1-.3-.2-.8-.6.5a3.4 3.4 0 0 1-1.4.6 3.7 3.7 0 0 1-1.7 0c-.3 0-.5-.2-.7-.4a2 2 0 0 1-.5-.7l-.2-1c0-.2 0-.6.3-.8.1-.3.4-.6.8-.8.4-.3 1-.5 1.6-.6l2.3-.3v-.6c0-.6-.1-1-.4-1.4-.3-.3-.7-.5-1.2-.5a2.5 2.5 0 0 0-1.5.4l-.5.3-.3.2-.3-.1-.1-.2L66 5Zm13.4.8c-.2-.3-.5-.6-.8-.7-.3-.2-.7-.2-1-.2a2 2 0 0 0-1.8.8c-.4.5-.6 1.3-.6 2.3l.1 1.3.4 1 .7.5.8.2c.5 0 1-.1 1.3-.4l1-.9V5.8ZM81 .2V12H80c-.2 0-.3-.1-.4-.3l-.1-1c-.3.4-.7.8-1.2 1a3 3 0 0 1-1.5.4 2.7 2.7 0 0 1-2.2-1l-.7-1.3a6.7 6.7 0 0 1 0-3.5c.2-.5.4-1 .7-1.3a3.2 3.2 0 0 1 2.6-1.2 2.9 2.9 0 0 1 2.2.9V.2H81Zm7.6 6.9-.1-1a2 2 0 0 0-2-1.3c-.6 0-1.2.2-1.6.6-.4.4-.6 1-.7 1.7h4.4Zm1.2 3.8-.6.5a4 4 0 0 1-1.7.6 5 5 0 0 1-.9.1c-.5 0-1 0-1.5-.3a3.5 3.5 0 0 1-2-2.2 5.5 5.5 0 0 1-.1-3.4c.2-.5.4-1 .8-1.3l1.1-.8a3.9 3.9 0 0 1 3 0c.4 0 .7.3 1 .6.4.3.6.7.8 1.2l.2 1.5v.4l-.3.2H84c0 .5 0 1 .2 1.3 0 .4.3.7.5 1l.8.5 1 .2a3.1 3.1 0 0 0 1.6-.4l.5-.3h.6l.4.6Zm1.9 1.1V3.9h.8c.2 0 .3 0 .4.3l.1.8 1-.9c.4-.2.8-.3 1.3-.3s1 .1 1.3.4c.4.3.6.7.8 1.3 0-.3.2-.6.4-.8a2.7 2.7 0 0 1 1.4-.8 3.3 3.3 0 0 1 1.9 0l.8.7c.3.2.5.6.6 1l.2 1.2V12H101V6.8c0-.6-.1-1-.4-1.4-.3-.3-.7-.5-1.2-.5a1.8 1.8 0 0 0-1.2.5l-.4.6-.1.8V12h-1.5V6.8c0-.6-.1-1.1-.4-1.4-.2-.3-.6-.5-1.1-.5-.4 0-.7.1-1 .3-.3.2-.6.4-.8.8v6h-1.4Zm20-8.1L107 14.4l-.2.2-.3.1h-1l1.4-3.2-3.3-7.6h1.5l.1.3 2.2 5.1.2.7c0-.3.2-.5.3-.7l2-5.1.2-.2.3-.1h1.1Z" fill="#444"/></svg>